<svg xmlns="http://www.w3.org/2000/svg" xmlns:xlink="http://www.w3.org/1999/xlink" fill="none" version="1.1" width="200.81773376464844" height="199.56077575683594" viewBox="0 0 200.81773376464844 199.56077575683594"><g><rect x="0" y="0" width="200.81773376464844" height="199.56077575683594" rx="19" fill="#FFFFFF" fill-opacity="1"/><g><g><path d="M62.87620544433594,79.99012756347656L83.87620544433594,103.99012756347656Q94.62620544433594,89.49012756347656,102.87620544433594,74.49012756347656Q111.12620544433594,59.49012756347656,112.37620544433594,47.49012756347656Q101.37620544433594,51.49012756347656,85.87620544433594,61.99012756347656Q70.37620544433594,72.49012756347656,62.87620544433594,79.99012756347656ZM45.87620544433594,151.49012756347656L145.87620544433594,151.49012756347656L83.87620544433594,103.99012756347656L45.87620544433594,151.49012756347656Z" fill="#A2F1F8" fill-opacity="1"/></g><g><path d="M69.376148,78.990137C59.876091,71.49014700000001,9.876217,133.490128,27.8762093,147.99013Q45.876202,162.49013,86.87615600000001,130.990128Q154.37621,162.49013,172.37621,147.99013C190.37621,133.490128,148.37619,70.990128,140.37613,72.990128C132.37613,74.990128,128.87617,86.490143,128.87617,92.990128C128.87617,95.530025,134.52568,101.04736700000001,140.9024,107.274918C150.84467,116.984612,162.55479,128.420784,157.37621,132.990128Q148.87619,140.490128,102.376129,111.490128Q124.00113,77.740149,125.37613,64.990162C126.75113,52.2401562,118.876175,44.990099,112.376175,47.49012756C102.376175,78.490112,66.376209,132.490128,45.376209,135.490128C34.27068,137.07663,44.279943,123.281502,54.772339,108.82049599999999C64.120541,95.936466,73.85224500000001,82.523872,69.376148,78.990137Z" fill="#3479FA" fill-opacity="1"/></g></g></g></svg>